<svg width="312" height="86" viewBox="0 0 312 86" fill="none" xmlns="http://www.w3.org/2000/svg">
<path d="M252.762 80L246.105 62.8203H248.566L253.031 75.3008C253.391 76.3008 253.691 77.2383 253.934 78.1133C254.199 77.1758 254.508 76.2383 254.859 75.3008L259.5 62.8203H261.82L255.094 80H252.762Z" fill="black"/>
<path d="M261.469 73.7773C261.469 71.4727 262.109 69.7656 263.391 68.6562C264.461 67.7344 265.766 67.2734 267.305 67.2734C269.016 67.2734 270.414 67.8359 271.5 68.9609C272.586 70.0781 273.129 71.625 273.129 73.6016C273.129 75.2031 272.887 76.4648 272.402 77.3867C271.926 78.3008 271.227 79.0117 270.305 79.5195C269.391 80.0273 268.391 80.2812 267.305 80.2812C265.562 80.2812 264.152 79.7227 263.074 78.6055C262.004 77.4883 261.469 75.8789 261.469 73.7773ZM263.637 73.7773C263.637 75.3711 263.984 76.5664 264.68 77.3633C265.375 78.1523 266.25 78.5469 267.305 78.5469C268.352 78.5469 269.223 78.1484 269.918 77.3516C270.613 76.5547 270.961 75.3398 270.961 73.707C270.961 72.168 270.609 71.0039 269.906 70.2148C269.211 69.418 268.344 69.0195 267.305 69.0195C266.25 69.0195 265.375 69.4141 264.68 70.2031C263.984 70.9922 263.637 72.1836 263.637 73.7773Z" fill="black"/>
<path d="M280.219 78.1133L280.523 79.9766C279.93 80.1016 279.398 80.1641 278.93 80.1641C278.164 80.1641 277.57 80.043 277.148 79.8008C276.727 79.5586 276.43 79.2422 276.258 78.8516C276.086 78.4531 276 77.6211 276 76.3555V69.1953H274.453V67.5547H276V64.4727L278.098 63.207V67.5547H280.219V69.1953H278.098V76.4727C278.098 77.0742 278.133 77.4609 278.203 77.6328C278.281 77.8047 278.402 77.9414 278.566 78.043C278.738 78.1445 278.98 78.1953 279.293 78.1953C279.527 78.1953 279.836 78.168 280.219 78.1133Z" fill="black"/>
<path d="M282.305 65.2461V62.8203H284.414V65.2461H282.305ZM282.305 80V67.5547H284.414V80H282.305Z" fill="black"/>
<path d="M287.637 80V67.5547H289.535V69.3242C290.449 67.957 291.77 67.2734 293.496 67.2734C294.246 67.2734 294.934 67.4102 295.559 67.6836C296.191 67.9492 296.664 68.3008 296.977 68.7383C297.289 69.1758 297.508 69.6953 297.633 70.2969C297.711 70.6875 297.75 71.3711 297.75 72.3477V80H295.641V72.4297C295.641 71.5703 295.559 70.9297 295.395 70.5078C295.23 70.0781 294.938 69.7383 294.516 69.4883C294.102 69.2305 293.613 69.1016 293.051 69.1016C292.152 69.1016 291.375 69.3867 290.719 69.957C290.07 70.5273 289.746 71.6094 289.746 73.2031V80H287.637Z" fill="black"/>
<path d="M300.609 81.0312L302.66 81.3359C302.746 81.9688 302.984 82.4297 303.375 82.7188C303.898 83.1094 304.613 83.3047 305.52 83.3047C306.496 83.3047 307.25 83.1094 307.781 82.7188C308.312 82.3281 308.672 81.7812 308.859 81.0781C308.969 80.6484 309.02 79.7461 309.012 78.3711C308.09 79.457 306.941 80 305.566 80C303.855 80 302.531 79.3828 301.594 78.1484C300.656 76.9141 300.188 75.4336 300.188 73.707C300.188 72.5195 300.402 71.4258 300.832 70.4258C301.262 69.418 301.883 68.6406 302.695 68.0938C303.516 67.5469 304.477 67.2734 305.578 67.2734C307.047 67.2734 308.258 67.8672 309.211 69.0547V67.5547H311.156V78.3125C311.156 80.25 310.957 81.6211 310.559 82.4258C310.168 83.2383 309.543 83.8789 308.684 84.3477C307.832 84.8164 306.781 85.0508 305.531 85.0508C304.047 85.0508 302.848 84.7148 301.934 84.043C301.02 83.3789 300.578 82.375 300.609 81.0312ZM302.355 73.5547C302.355 75.1875 302.68 76.3789 303.328 77.1289C303.977 77.8789 304.789 78.2539 305.766 78.2539C306.734 78.2539 307.547 77.8828 308.203 77.1406C308.859 76.3906 309.188 75.2188 309.188 73.625C309.188 72.1016 308.848 70.9531 308.168 70.1797C307.496 69.4062 306.684 69.0195 305.73 69.0195C304.793 69.0195 303.996 69.4023 303.34 70.168C302.684 70.9258 302.355 72.0547 302.355 73.5547Z" fill="black"/>
<path d="M185.557 40.6082V13.9072H179.849L170.722 36.3361L161.821 13.9072H156V40.6082H159.605V17.4546L168.957 40.6082H172.525L181.952 17.6835V40.6082H185.557Z" fill="black"/>
<path d="M199.236 25.0072C202.766 25.0072 204.531 26.5711 204.531 29.7371V30.0041H199.574C193.903 30.0041 191.086 31.8732 191.086 35.6495C191.086 39.1969 193.64 41.0278 197.583 41.0278C200.888 41.0278 203.254 40.1124 204.719 38.2433L205.207 40.6845H207.836V29.6227C207.836 24.5113 205.057 21.9557 199.499 21.9557C196.306 21.9557 193.715 22.9474 191.8 24.9691L193.94 26.8381C195.48 25.6175 197.245 25.0072 199.236 25.0072ZM204.531 33.6278C204.531 37.2515 200.963 38.1289 198.56 38.1289C196.043 38.1289 194.804 37.2897 194.804 35.5732C194.804 33.7041 196.381 32.7505 199.574 32.7505H204.531V33.6278Z" fill="black"/>
<path d="M217.201 40.6082V12H213.821V40.6082H217.201Z" fill="black"/>
<path d="M230.117 25.0072C233.648 25.0072 235.413 26.5711 235.413 29.7371V30.0041H230.455C224.784 30.0041 221.968 31.8732 221.968 35.6495C221.968 39.1969 224.522 41.0278 228.465 41.0278C231.77 41.0278 234.136 40.1124 235.601 38.2433L236.089 40.6845H238.718V29.6227C238.718 24.5113 235.939 21.9557 230.38 21.9557C227.188 21.9557 224.597 22.9474 222.681 24.9691L224.822 26.8381C226.362 25.6175 228.127 25.0072 230.117 25.0072ZM235.413 33.6278C235.413 37.2515 231.845 38.1289 229.441 38.1289C226.925 38.1289 225.686 37.2897 225.686 35.5732C225.686 33.7041 227.263 32.7505 230.455 32.7505H235.413V33.6278Z" fill="black"/>
<path d="M242.712 22.3753L250.637 40.6082L250.186 41.7907C248.984 45.033 247.482 45.9866 245.529 45.9866C245.079 45.9866 244.628 45.9103 244.215 45.7959L243.802 48.7711C244.327 48.9237 245.003 49 245.867 49C249.36 49 251.426 47.3216 253.228 42.5918L253.98 40.6082L261.378 22.3753H257.698L251.914 37.366L246.431 22.3753H242.712Z" fill="black"/>
<path d="M271.512 21.9557C267.494 21.9557 264.564 23.5577 264.564 27.0289C264.564 29.432 266.179 30.9196 268.207 31.568C271.174 32.5216 274.855 33.0175 274.855 35.3825C274.855 37.2134 273.54 38.1289 270.874 38.1289C268.808 38.1289 267.118 37.4804 265.803 36.2216L263.588 38.2814C265.052 40.0742 267.456 40.9897 270.799 40.9897C275.643 40.9897 278.235 38.7392 278.235 35.3443C278.235 32.9031 276.657 31.2629 274.629 30.5C271.625 29.432 267.944 28.9361 267.944 26.9144C267.944 25.5031 269.409 24.8165 271.399 24.8165C273.014 24.8165 274.404 25.3505 275.643 26.4186L277.784 24.2062C276.019 22.7186 273.953 21.9557 271.512 21.9557Z" fill="black"/>
<path d="M286.483 40.6082V22.3753H283.103V40.6082H286.483ZM282.315 15.8144C282.315 17.1495 283.254 18.0649 284.793 18.0649C286.296 18.0649 287.197 17.1495 287.197 15.8144C287.197 14.4412 286.296 13.3732 284.793 13.3732C283.291 13.3732 282.315 14.4412 282.315 15.8144Z" fill="black"/>
<path d="M299.399 25.0072C302.93 25.0072 304.695 26.5711 304.695 29.7371V30.0041H299.737C294.066 30.0041 291.25 31.8732 291.25 35.6495C291.25 39.1969 293.804 41.0278 297.747 41.0278C301.052 41.0278 303.418 40.1124 304.883 38.2433L305.371 40.6845H308V29.6227C308 24.5113 305.221 21.9557 299.662 21.9557C296.47 21.9557 293.879 22.9474 291.963 24.9691L294.104 26.8381C295.644 25.6175 297.409 25.0072 299.399 25.0072ZM304.695 33.6278C304.695 37.2515 301.127 38.1289 298.723 38.1289C296.207 38.1289 294.968 37.2897 294.968 35.5732C294.968 33.7041 296.545 32.7505 299.737 32.7505H304.695V33.6278Z" fill="black"/>
<path d="M134.45 0C131.87 0 130.021 2.04524 130.021 4.33396C130.021 6.62268 131.895 8.66792 134.45 8.66792C137.004 8.66792 139 6.79312 139 4.33396C139.024 1.85046 137.029 0 134.45 0ZM131.14 40.7344H137.905V13.6593H131.14V40.7344ZM70.552 12.9775C62.3763 12.9775 55.8308 18.675 55.8308 27.1968C55.8308 35.7187 62.3763 41.4161 70.552 41.4161C74.2749 41.4161 77.8032 40.2474 80.7231 37.3987L76.4406 33.1134C74.8589 34.7934 72.7907 35.9865 69.8707 35.9865C66.0992 35.9865 63.0333 33.5517 62.5953 29.5586H83.2294V27.7081C83.2537 18.2854 78.1195 12.9775 70.552 12.9775ZM62.6196 24.4942C63.1306 20.5985 65.6125 18.0663 69.6031 18.0663C73.837 18.0663 76.4162 20.5498 76.4892 24.4942H62.6196ZM92.6948 21.2802C92.6948 19.235 94.836 18.4072 96.6366 18.4072C98.9239 18.4072 100.627 19.3567 101.917 21.1585L106.224 16.8489C103.985 14.0732 100.311 13.0019 96.807 13.0019C91.3321 13.0019 85.9303 15.7045 85.9303 21.7428C85.9303 32.0664 100.53 27.6594 100.53 33.2595C100.53 35.4021 97.9993 36.3517 96.0283 36.3517C93.1571 36.3517 91.3565 34.9395 89.6045 33.0404L85.2246 37.423C87.9742 40.3935 91.5268 41.4405 95.6147 41.4405C101.138 41.4405 107.294 39.1761 107.294 32.7482C107.294 22.1811 92.6948 26.1255 92.6948 21.2802ZM117.271 17.9445H117.173V13.6593H110.409V40.7344H117.173V26.2229C117.173 24.762 118.074 19.4054 124.449 19.4054C125.422 19.4054 126.42 19.6002 127.442 19.8437L127.709 13.3671C126.931 13.148 126.152 12.9775 125.3 12.9775C121.748 12.9775 118.755 14.8523 117.271 17.9445ZM25.6583 3.94439C23.5414 3.87135 22.3004 4.16353 21.0594 4.40701C20.6945 4.30961 19.9888 4.407 19.9401 5.23484C19.9401 5.67311 20.0861 6.01398 20.3538 6.20876C20.6215 6.40355 22.9574 8.13226 24.6607 9.93402C23.8334 10.0314 22.9574 10.1775 22.0571 10.3723C21.0351 8.18096 17.7745 10.1775 15.6089 10.2505C15.3656 10.2505 15.1223 10.2992 14.8546 10.3236C14.6113 8.49748 14.441 6.57399 14.4896 5.23484C17.3122 3.62787 22.7384 2.45916 26.437 2.41046L27.0939 2.38611C27.6293 2.38611 27.6779 1.94785 27.1669 1.8748C22.5681 1.24175 18.6018 2.16698 14.514 3.87135C10.2558 5.6731 4.85391 9.78794 1.569 17.5793C0.790354 19.7463 -2.29989 30.0942 3.19929 38.9813C7.65216 46.1883 13.3703 49.6214 20.3781 50.5953C27.3616 51.5693 31.1575 50.7171 35.586 48.7692C45.9274 44.1674 53.8355 26.929 45.9274 14.4141C42.7642 8.59488 34.6127 3.55482 25.6583 3.94439ZM21.7408 12.028C23.1034 11.7114 24.466 11.5166 25.853 11.3949C26.9966 12.7584 28.0186 14.2436 28.8946 15.8019C27.4833 16.4837 25.634 16.995 24.8797 18.0906C24.5634 18.5532 24.4903 19.1619 24.466 19.8193C22.1544 20.3794 19.9158 21.1098 17.7259 22.0594C16.9472 19.7463 16.2416 17.4332 15.7793 15.388C18.0179 13.221 20.6458 12.8558 21.7408 12.028ZM33.2258 39.6387C32.6175 39.7117 32.0091 39.7848 31.4495 39.8578C30.1112 40.077 28.3836 40.5152 26.7776 41.1239C25.853 39.663 23.3954 36.0839 22.1301 33.4056C24.6363 32.1638 28.1402 31.1412 32.1795 30.8977C32.5201 31.4821 32.8851 32.0421 33.3718 32.5534C34.7101 33.8925 32.6175 35.8404 33.2258 39.6387ZM18.2612 23.7394C20.2078 22.8142 22.2517 22.0594 24.4417 21.4994C24.4174 22.0837 24.3687 22.6194 24.1254 23.082C23.7847 23.715 23.9307 25.5655 24.3687 26.1742C25.6826 28.0977 27.8483 27.0264 29.5029 27.7081C30.2572 28.0247 30.7682 28.536 31.1818 29.169C27.7509 29.3881 24.393 30.1916 21.2541 31.6282C19.6482 28.1951 18.2612 23.7394 18.2612 23.7394ZM19.7212 32.3343C19.5995 32.383 19.4778 32.456 19.3318 32.5291C17.4582 31.9934 15.5846 31.5551 13.6623 31.1656C11.9347 30.8003 11.8617 30.8977 9.9151 31.4821C9.64744 31.5551 9.37978 31.6282 9.11212 31.7256C8.84446 31.0438 8.5768 30.3377 8.33347 29.6316C10.8397 27.7081 13.346 26.1012 16.7039 24.4455C17.6042 27.002 18.8452 30.4838 19.7212 32.3343ZM21.0351 40.1987C21.5461 38.8596 21.9354 37.8856 22.0814 36.9117C23.0791 38.5674 24.247 40.3935 25.1717 41.8057C23.736 42.4874 22.0814 43.5587 20.5241 44.7274C20.6458 42.95 20.6701 41.1483 21.0351 40.1987ZM30.3302 14.7549C30.3059 14.7793 30.2815 14.8036 30.2572 14.828C29.5272 13.5619 28.7242 12.3445 27.8726 11.1514C29.6245 11.054 31.7658 11.1271 33.7368 11.3462C31.9605 11.9549 31.1818 13.5132 30.3302 14.7549ZM14.6356 16.6541C14.66 16.6054 14.7086 16.5811 14.733 16.5324C15.1466 18.5776 15.6333 20.282 16.2659 22.6437C13.8327 23.715 9.52577 26.369 7.62783 27.8055C7.28717 26.929 6.92218 25.6872 6.60586 24.4211C7.04384 23.1307 7.91982 22.2298 9.16078 22.1081C11.3021 21.9133 13.127 18.7237 14.6356 16.6541ZM5.2189 13.5375C7.50616 10.3479 10.5964 7.23138 13.419 5.67311C13.3947 6.3792 13.565 8.40009 13.8083 10.3479C12.8107 10.4453 11.8374 10.5671 10.8641 10.7132C8.5768 12.661 6.72752 15.0958 5.43789 17.8228C5.24323 16.021 5.1459 14.4871 5.2189 13.5375ZM3.7346 16.0454C3.7346 16.0454 3.83193 17.8958 3.92927 19.235C3.92927 19.235 2.56664 20.7689 1.88532 22.0107C2.15298 19.5028 2.73697 18.2124 3.7346 16.0454ZM17.0446 47.9657C10.0124 45.7501 4.80524 39.8335 2.93163 33.6004C1.86099 29.9482 1.47167 26.1255 1.78799 22.3515C1.88532 22.3759 2.10432 22.4733 2.44497 22.3759C2.6883 22.2055 3.51561 21.6211 4.09959 21.1098L4.12393 21.3289C3.7346 22.8385 3.46694 24.4211 3.41828 26.0525C4.05093 26.7342 4.80524 27.8542 5.65688 29.0229C5.12157 29.4125 4.07526 30.1429 3.83193 30.3134C3.12629 30.8247 3.12629 31.6282 3.63727 32.0908C3.92927 32.3343 4.48892 32.2369 4.70791 32.0664C5.34056 31.5795 5.85154 31.1656 6.55719 30.7273C6.82485 31.409 7.06818 32.0177 7.3115 32.6264C6.99518 32.943 6.80052 33.3812 6.72752 34.0143C6.48419 36.0595 8.43081 37.6422 10.0611 38.1291C10.1341 38.1535 10.1584 38.1535 10.2314 38.1778C10.3288 38.2995 10.4017 38.4456 10.4991 38.5674C9.64744 39.2248 9.06345 39.9065 8.67413 40.4178C8.45514 40.71 8.18748 41.1726 8.40647 41.2457C8.62547 41.3431 9.33111 41.2457 9.64744 41.197C10.4504 41.0509 11.0831 40.15 11.6427 39.8091C12.324 40.7344 13.419 41.9274 14.5383 43.0718C14.587 43.2909 14.6356 43.51 14.6843 43.6805C14.9033 44.3866 15.1953 45.0683 15.5359 45.7501C16.3632 46.1396 17.2149 46.4562 18.0909 46.724C17.7502 47.1136 17.3852 47.5275 17.0446 47.9657ZM18.7722 48.5257C19.0398 48.1605 19.3075 47.7466 19.6482 47.4301C20.4511 47.9657 21.3271 48.5988 22.0328 48.9884C20.9621 48.8666 19.6968 48.8423 18.7722 48.5257ZM24.174 49.0614C24.174 49.0614 21.3758 47.211 20.6701 46.5049C22.0571 45.3361 24.32 43.9727 26.0963 43.2179C26.802 44.3135 29.0892 47.5762 30.0139 48.6231C28.3836 48.9153 26.0476 49.1344 24.174 49.0614ZM35.8294 46.4318C35.3427 46.7727 32.9338 47.844 32.0091 48.1605C30.4275 46.4318 29.0162 44.557 27.7753 42.5848C29.2352 41.9761 31.4982 41.4161 33.5908 41.1483C33.7854 41.7326 34.0287 42.3657 34.3694 43.0474C34.7101 43.7048 35.075 44.1918 35.4887 44.5327C35.6347 44.4353 35.7807 44.3379 35.9267 44.2405C35.9024 44.9709 35.878 45.7257 35.8294 46.4318ZM35.2697 9.08184C34.8074 8.78966 34.2234 8.88706 34.4667 9.42272C34.5641 9.6175 34.9291 9.95837 35.221 10.3236C33.5178 9.86098 28.9432 9.49575 26.7776 9.69054C25.3663 8.10791 23.736 6.16007 21.8138 4.86962C30.5005 4.33396 38.3113 7.91313 41.7665 12.1497C40.6229 11.541 38.141 10.6888 37.119 10.4697C36.535 9.90967 35.8537 9.47141 35.2697 9.08184ZM37.1677 45.7257C37.2163 45.0196 37.2407 44.1187 37.265 43.2909C38.1166 42.6335 38.9196 41.9274 39.6496 41.1483C40.5986 41.27 41.5475 41.4161 42.1315 41.5622C40.8419 43.1935 39.0656 44.5327 37.1677 45.7257ZM43.8105 39.2491C43.5915 39.6874 43.0562 40.4422 42.7155 40.8074C42.1802 40.5883 41.3529 40.3691 40.5012 40.15C40.6472 39.9796 40.7932 39.8335 40.9149 39.663C41.3772 36.5465 40.3309 35.5482 41.6449 32.6751L41.9369 32.0177C42.6668 32.2125 43.3482 32.456 43.9321 32.6995C44.0295 33.7708 44.0295 37.4474 43.8105 39.2491ZM42.5938 30.6786C42.9345 29.9725 43.2995 29.2177 43.7131 28.4629C43.8105 29.4125 43.9078 30.3377 43.9321 31.1899C43.4941 31.0195 43.0318 30.849 42.5938 30.6786ZM46.4384 32.6508L46.0977 33.9656C45.8544 34.8665 45.0758 36.9848 44.6621 37.8369C44.8324 36.6926 44.9541 33.6978 44.9298 33.0891C45.1974 33.1865 45.8057 32.8212 45.9031 32.5047C46.0004 32.1638 44.9298 31.6525 44.9298 31.6525C44.9298 30.0942 44.8324 28.5116 44.6378 26.9533C44.8811 26.5638 45.1244 26.1742 45.3921 25.809C45.3434 24.8838 45.2461 23.9829 45.0758 23.0576C45.2948 23.1307 45.4894 23.1794 45.6354 23.1794C46.1221 23.1794 46.1221 22.8385 45.9761 22.6681C45.8787 22.5463 45.4164 22.2542 44.8568 21.9376C44.0538 18.5046 42.3992 15.315 40.0146 12.6854C40.9392 13.0262 42.1315 13.5132 43.0562 14.0245C43.7618 14.9254 45.8057 16.9463 46.9007 22.5707C47.8497 27.6594 46.779 31.5308 46.4384 32.6508Z" fill="black"/>
</svg>
